<?xml version="1.0" encoding="UTF-8"?>
<svg xmlns="http://www.w3.org/2000/svg" xmlns:xlink="http://www.w3.org/1999/xlink" width="56px" height="56px" viewBox="0 0 56 56" version="1.1">
<defs>
<clipPath id="clip1">
  <rect x="0" y="0" width="56" height="56"/>
</clipPath>
<g id="surface5" clip-path="url(#clip1)">
<path style=" stroke:none;fill-rule:nonzero;fill:rgb(9.803922%,46.27451%,82.352941%);fill-opacity:1;" d="M 28 4.667969 C 18.199219 4.667969 9.332031 12.179688 9.332031 23.800781 C 9.332031 31.21875 15.050781 39.945312 26.460938 50.003906 C 27.347656 50.773438 28.675781 50.773438 29.5625 50.003906 C 40.949219 39.945312 46.667969 31.21875 46.667969 23.800781 C 46.667969 12.179688 37.800781 4.667969 28 4.667969 Z M 28 28 C 25.433594 28 23.332031 25.898438 23.332031 23.332031 C 23.332031 20.765625 25.433594 18.667969 28 18.667969 C 30.566406 18.667969 32.667969 20.765625 32.667969 23.332031 C 32.667969 25.898438 30.566406 28 28 28 Z M 28 28 "/>
</g>
</defs>
<g id="surface1">
<use xlink:href="#surface5"/>
</g>
</svg>
